<svg width="160" height="48" viewBox="0 0 160 48" fill="none" xmlns="http://www.w3.org/2000/svg">
  <rect width="160" height="48" rx="8" fill="#111827"/>
  <path d="M30.4 33.2C24.4 33.2 20 28.4 20 23.8C20 19.2 24.4 14.4 30.4 14.4C34.4 14.4 37.6 16 39.6 18.6L36.2 21.4C35 19.8 33 18.8 30.6 18.8C27 18.8 24.4 21.4 24.4 24C24.4 26.6 27 29.2 30.6 29.2C33 29.2 35 28.2 36.2 26.6L39.6 29.4C37.6 32 34.4 33.2 30.4 33.2Z" fill="#60A5FA"/>
  <path d="M48.1998 33H43.3998V14.6H48.1998L55.1998 24.8L62.1998 14.6H66.9998V33H62.1998V22.2L55.1998 32.2L48.1998 22.2V33Z" fill="#E5E7EB"/>
  <path d="M91.7997 14.6H85.3997L79.9997 24L74.5997 14.6H68.1997L76.5997 28.6V33H83.3997V28.6L91.7997 14.6Z" fill="#FBBF24"/>
  <path d="M102.6 14.6L108 24.6L113.4 14.6H119.6L110.8 30.4V33H105.2V30.4L96.3999 14.6H102.6Z" fill="#F9FAFB"/>
  <path d="M131 14.2C136.6 14.2 140.8 18.2 140.8 23.8C140.8 29.4 136.6 33.4 131 33.4C125.4 33.4 121.2 29.4 121.2 23.8C121.2 18.2 125.4 14.2 131 14.2ZM131 18.8C128.2 18.8 126 20.8 126 23.8C126 26.8 128.2 28.8 131 28.8C133.8 28.8 136 26.8 136 23.8C136 20.8 133.8 18.8 131 18.8Z" fill="#34D399"/>
</svg>
