<svg width="150" height="48" viewBox="0 0 150 48" fill="none" xmlns="http://www.w3.org/2000/svg">
  <rect width="150" height="48" rx="10" fill="#0f172a" />
  <circle cx="32" cy="24" r="12" stroke="#a8a29e" stroke-width="4" fill="none" />
  <path d="M32 16C27.6 16 24 19.6 24 24C24 28.4 27.6 32 32 32C36.4 32 40 28.4 40 24H36C36 26.2 34.2 28 32 28C29.8 28 28 26.2 28 24C28 21.8 29.8 20 32 20V16Z" fill="#fbbf24" />
  <path d="M60 33H55.2V14.6H67.8V18.8H60V22.6H67V26.6H60V33Z" fill="#e0e7ff" />
  <path d="M74.4 14.6L79 24.2L83.6 14.6H88.6L80.6 30.8V33H75.4V30.8L67.4 14.6H74.4Z" fill="#38bdf8" />
  <path d="M94 33H89.2V14.6H94L100.6 24.4L107.2 14.6H111.6V33H106.8V22.2L100.6 31.4L94 22.2V33Z" fill="#c4b5fd" />
  <path d="M124 14.2C129.6 14.2 133.8 18.2 133.8 23.8C133.8 29.4 129.6 33.4 124 33.4C118.4 33.4 114.2 29.4 114.2 23.8C114.2 18.2 118.4 14.2 124 14.2ZM124 18.8C121.2 18.8 119 20.8 119 23.8C119 26.8 121.2 28.8 124 28.8C126.8 28.8 129 26.8 129 23.8C129 20.8 126.8 18.8 124 18.8Z" fill="#34d399" />
</svg>
