<svg width="180" height="48" viewBox="0 0 180 48" fill="none" xmlns="http://www.w3.org/2000/svg">
  <rect width="180" height="48" rx="10" fill="#111827" />
  <path d="M30 33.2C23.6 33.2 19 28.4 19 23.8C19 19.2 23.6 14.4 30 14.4C35 14.4 38.6 16.8 40.8 20.8L36.2 22.8C35.2 20.6 33 19 30.2 19C26.6 19 24 21.8 24 24C24 26.2 26.6 29 30.2 29C33 29 35.2 27.4 36.2 25.2L40.8 27.2C38.8 31.2 35.2 33.2 30 33.2Z" fill="#F87171"/>
  <path d="M54.6 14.6C60.4 14.6 64.6 18.6 64.6 24C64.6 29.4 60.4 33.4 54.6 33.4C48.8 33.4 44.6 29.4 44.6 24C44.6 18.6 48.8 14.6 54.6 14.6ZM54.6 19C51.8 19 49.6 21.2 49.6 24C49.6 26.8 51.8 29 54.6 29C57.4 29 59.6 26.8 59.6 24C59.6 21.2 57.4 19 54.6 19Z" fill="#34D399"/>
  <path d="M80.5999 14.6C86.3999 14.6 90.5999 18.6 90.5999 24C90.5999 29.4 86.3999 33.4 80.5999 33.4C74.7999 33.4 70.5999 29.4 70.5999 24C70.5999 18.6 74.7999 14.6 80.5999 14.6ZM80.5999 19C77.7999 19 75.5999 21.2 75.5999 24C75.5999 26.8 77.7999 29 80.5999 29C83.3999 29 85.5999 26.8 85.5999 24C85.5999 21.2 83.3999 19 80.5999 19Z" fill="#60A5FA"/>
  <path d="M104 33H99.2V14.6H104L110.6 24.4L117.2 14.6H121.6V33H116.8V22.2L110.6 31.4L104 22.2V33Z" fill="#FBBF24"/>
  <path d="M135.4 14.2C141 14.2 145.2 18.2 145.2 23.8C145.2 29.4 141 33.4 135.4 33.4C129.8 33.4 125.6 29.4 125.6 23.8C125.6 18.2 129.8 14.2 135.4 14.2ZM135.4 18.8C132.6 18.8 130.4 20.8 130.4 23.8C130.4 26.8 132.6 28.8 135.4 28.8C138.2 28.8 140.4 26.8 140.4 23.8C140.4 20.8 138.2 18.8 135.4 18.8Z" fill="#A855F7"/>
</svg>
